<?xml version="1.0" encoding="utf-8"?>
<!-- Generator: Adobe Illustrator 26.0.2, SVG Export Plug-In . SVG Version: 6.00 Build 0)  -->
<svg version="1.1" id="Layer_1" xmlns="http://www.w3.org/2000/svg" xmlns:xlink="http://www.w3.org/1999/xlink" x="0px" y="0px"
	 viewBox="0 0 852 439" style="enable-background:new 0 0 852 439;" xml:space="preserve">
<style type="text/css">
	.st0{fill:#E10101;}
	.st1{fill:#EC0000;}
</style>
<path class="st0" d="M482.5,30H369.8C345.7,30,326,49.6,326,73.7v112.6c0,24.1,19.7,43.7,43.8,43.7h73.1c5,0,9.1-4.1,9.1-9.1
	c0-5-4.1-9.1-9.1-9.1h-73.1c-14.1,0-25.6-11.5-25.6-25.6V73.7c0-14.1,11.5-25.6,25.6-25.6h112.7c14.1,0,25.6,11.5,25.6,25.6v156.1
	l-21.9-16.3c-4-3-9.7-2.2-12.7,1.9c-3,4-2.2,9.7,1.9,12.7l36.4,27c1.6,1.2,3.6,1.8,5.5,1.8c1.4,0,2.8-0.4,4.1-1c3.1-1.5,5-4.7,5-8.1
	V73.7C526.4,49.6,506.7,30,482.5,30L482.5,30z"/>
<path class="st0" d="M398.8,110.9V93.7c0-5-4.1-9.1-9.1-9.1c-5,0-9.1,4.1-9.1,9.1v17.3c0,5,4.1,9.1,9.1,9.1
	C394.7,120,398.8,115.9,398.8,110.9z"/>
<path class="st0" d="M462.6,84.6c-5,0-9.1,4.1-9.1,9.1v17.3c0,5,4.1,9.1,9.1,9.1c5,0,9.1-4.1,9.1-9.1V93.7
	C471.7,88.7,467.6,84.6,462.6,84.6z"/>
<path class="st0" d="M456.1,150.7c-20.7,20.8-39.2,20.8-59.9,0c-3.6-3.5-9.3-3.6-12.8,0c-3.5,3.5-3.6,9.3,0,12.8
	c13.8,14,28.3,21.2,42.9,21.2c14.6,0,29-7.1,42.9-21.2c3.6-3.5,3.5-9.4,0-12.8c-3.6-3.5-9.4-3.5-12.8,0H456.1z"/>
<g>
	<path class="st1" d="M25.9,370.7l10.3-15.8C45.4,361.5,55.1,365,63,365c7,0,10.1-2.5,10.1-6.3v-0.3c0-5.2-8.2-7-17.6-9.8
		c-11.9-3.5-25.3-9-25.3-25.5v-0.3c0-17.3,13.9-26.9,31-26.9c10.8,0,22.5,3.6,31.7,9.8l-9.2,16.6c-8.4-4.9-16.8-7.9-23-7.9
		c-5.9,0-8.9,2.5-8.9,5.9v0.3c0,4.7,8.1,7,17.3,10.1c11.9,4,25.6,9.7,25.6,25.2v0.3c0,18.8-14.1,27.4-32.4,27.4
		C50.5,383.5,37.2,379.6,25.9,370.7z"/>
	<path class="st1" d="M112.5,266.4h25.3v21.4h-25.3V266.4z M113.1,297.1h24.1v84.8h-24.1V297.1z"/>
	<path class="st1" d="M159.8,297.1h24.1v12c5.5-7.1,12.8-13.6,25-13.6c11.1,0,19.5,4.9,23.9,13.5c7.4-8.7,16.3-13.5,27.9-13.5
		c17.9,0,28.6,10.8,28.6,31.2v55.2h-24.1v-47.3c0-11.4-5.1-17.3-14.1-17.3s-14.6,5.9-14.6,17.3v47.3h-24.1v-47.3
		c0-11.4-5.1-17.3-14.1-17.3s-14.6,5.9-14.6,17.3v47.3h-24.1V297.1z"/>
	<path class="st1" d="M310.2,297.1h24.1v12.2c5.9-7.9,13.9-13.8,26.4-13.8c19.8,0,38.6,15.5,38.6,43.8v0.3
		c0,28.3-18.5,43.8-38.6,43.8c-12.8,0-20.7-5.9-26.4-12.7v36.4h-24.1V297.1z M375.3,339.7v-0.3c0-14.1-9.5-23.4-20.7-23.4
		s-20.6,9.3-20.6,23.4v0.3c0,14.1,9.3,23.4,20.6,23.4S375.3,353.9,375.3,339.7z"/>
	<path class="st1" d="M417.8,274.3v-3.2H446v3.2l-7.4,70h-13.3L417.8,274.3z M419.1,356.6h25.6v25.3h-25.6V356.6z"/>
	<path class="st1" d="M470.9,271.1h24.4v88.6h55.2v22.2h-79.6V271.1z"/>
	<path class="st1" d="M606.8,270.4h22.5l47.5,111.6h-25.5l-10.1-24.9h-46.9l-10.1,24.9h-24.8L606.8,270.4z M632.5,335.6l-14.7-35.9
		L603,335.6H632.5z"/>
	<path class="st1" d="M661.6,271.1h26.1l23,75l24.8-75.3h20.9l24.8,75.3l23-75h25.5l-37.8,111.6h-21.2l-25-72.5l-25,72.5h-21.2
		L661.6,271.1z"/>
</g>
</svg>
